<?xml version="1.0" encoding="UTF-8"?>
<svg width="67.58mm" height="66.405mm" version="1.1" viewBox="0 0 67.58 66.405" xmlns="http://www.w3.org/2000/svg" xmlns:cc="http://creativecommons.org/ns#" xmlns:dc="http://purl.org/dc/elements/1.1/" xmlns:rdf="http://www.w3.org/1999/02/22-rdf-syntax-ns#">
 <metadata>
  <rdf:RDF>
   <cc:Work rdf:about="">
    <dc:format>image/svg+xml</dc:format>
    <dc:type rdf:resource="http://purl.org/dc/dcmitype/StillImage"/>
    <dc:title/>
   </cc:Work>
  </rdf:RDF>
 </metadata>
 <g transform="translate(-.23672 -.12296)">
  <path d="m25.736 58.154c-0.31181 2.6727-0.0668 6.1138-0.0668 6.1138 0.52534 0.66358-1.242 3.3997-3.0028 1.7272-36.554-15.378-25.232-64.261 10.954-65.839 35.971-1.5678 49.152 52.181 11.893 66.016-1.9588 0.73933-2.4209 0.20803-3.0101-1.0448-0.58946-1.1591 1.532-14.105-2.477-15.95 15.565-0.34189 19.621-17.998 12.035-25.769 1.0168-2.9371 1.6769-5.9017-0.53454-9.0872-3.6151-0.65643-6.2985 2.313-9.0872 3.6081-6.8807-1.9466-11.939-1.1598-16.838-0.13364-3.075-2.0798-6.1657-4.0022-9.4881-3.6081-1.2713 4.3003-0.70966 6.7678 0 9.0872-8.5305 10.511-1.7814 25.253 11.626 25.925-1.0326 1.4104-1.8485 2.8827-2.0045 4.5436-11.714 3.5663-8.8009-8.9708-16.571-6.0136 1.6186 2.6025 2.6883 1.1966 5.039 6.3539 1.4464 3.1734 3.8858 5.3057 11.532 4.0696z" style="fill:#920000"/>
 </g>
</svg>
