<?xml version="1.0" encoding="UTF-8"?>
<svg width="147mm" height="136mm" version="1.1" viewBox="0 0 147 136" xmlns="http://www.w3.org/2000/svg" xmlns:cc="http://creativecommons.org/ns#" xmlns:dc="http://purl.org/dc/elements/1.1/" xmlns:rdf="http://www.w3.org/1999/02/22-rdf-syntax-ns#" xmlns:xlink="http://www.w3.org/1999/xlink">
 <defs>
  <marker id="Arrow1Lstart" style="overflow:visible" orient="auto">
   <path transform="matrix(.8 0 0 .8 10 0)" d="m0 0 5-5-17.5 5 17.5 5z" style="fill-rule:evenodd;stroke-width:1pt;stroke:#000"/>
  </marker>
  <radialGradient id="radialGradient861" cx="147.25" cy="-58.23" r="15.737" gradientTransform="matrix(1.918 0 0 2.1453 -176.82 202.86)" gradientUnits="userSpaceOnUse">
   <stop style="stop-color:#fff" offset="0"/>
   <stop style="stop-color:#fff;stop-opacity:0" offset="1"/>
  </radialGradient>
 </defs>
 <metadata>
  <rdf:RDF>
   <cc:Work rdf:about="">
    <dc:format>image/svg+xml</dc:format>
    <dc:type rdf:resource="http://purl.org/dc/dcmitype/StillImage"/>
    <dc:title/>
   </cc:Work>
  </rdf:RDF>
 </metadata>
 <g transform="translate(-.4009 -.72962)">
  <path d="m57.124 34.874c-66.738 10.643-43.682 85.033-6.949 96.517 25.581 7.6638 49.525 10.391 80.715-16.303 11.819-11.237 27.697-44.929 2.6727-71.928-9.8606-9.0015-17.707-19.939-40.625-16.571z" style="fill:#f00;stroke-width:.26458px;stroke:#000"/>
  <path d="m59.054 43.564c11.512 0.79257 20.777-0.91146 29.818-2.8638-3.3772-0.89287 10.934-14.656 16.401-21.985l-15.171 9.861 8.7232-27.687-22.377 31.859-9.1024-23.515c-3.08-0.60843-5.9752-0.29297-8.3439 2.6549l6.0492 19.55-19.852-8.2445 17.216 12.21s-27.51-12.798-40.582-8.3439c-10.267 3.4986-21.239 24.652-21.239 24.652s14.588-15.802 24.476-17.753c11.657-2.2992 34.904 6.3804 33.983 9.6046z" style="fill:#008000;stroke-width:.37546px;stroke:#000"/>
  <path d="m74.097 110.89c19.01 1.2083 54.639-0.35365 65.95-42.775-55.973-46.781-85.405-44.481-65.95 42.775z" style="fill:url(#radialGradient861);opacity:.63022"/>
  <path d="m47.605 62.913-19.153 10.772 13.894 22.529" style="fill:none;stroke-width:3;stroke:#000"/>
  <path d="m45.97 107.98 15.502-50.247" style="fill:none;marker-mid:url(#Arrow1Lstart);stroke-width:3;stroke:#000"/>
  <path d="m67.557 74.706 12.027 18.391-22.719 13.582" style="fill:none;stroke-width:3;stroke:#000"/>
  <text transform="rotate(-35.445)" x="1.6967131" y="160.41698" style="fill:#000000;font-family:Verdana;font-size:19.535px;line-height:1.25;stroke-width:.48838" xml:space="preserve"><tspan x="1.6967131" y="160.41698" style="font-family:Verdana;stroke-width:.48838">Editor</tspan></text>
 </g>
</svg>
